<?xml version="1.0" encoding="UTF-8" standalone="no"?>
<!-- Created with Inkscape (http://www.inkscape.org/) -->

<svg
   width="35"
   height="35"
   viewBox="0 0 9.2604167 9.2604167"
   version="1.1"
   id="svg1"
   xml:space="preserve"
   inkscape:version="1.3 (0e150ed6c4, 2023-07-21)"
   sodipodi:docname="favicon.svg"
   xmlns:inkscape="http://www.inkscape.org/namespaces/inkscape"
   xmlns:sodipodi="http://sodipodi.sourceforge.net/DTD/sodipodi-0.dtd"
   xmlns="http://www.w3.org/2000/svg"
   xmlns:svg="http://www.w3.org/2000/svg"><sodipodi:namedview
     id="namedview1"
     pagecolor="#505050"
     bordercolor="#eeeeee"
     borderopacity="1"
     inkscape:showpageshadow="0"
     inkscape:pageopacity="0"
     inkscape:pagecheckerboard="0"
     inkscape:deskcolor="#505050"
     inkscape:document-units="px"
     inkscape:zoom="11.702245"
     inkscape:cx="37.770532"
     inkscape:cy="20.124344"
     inkscape:window-width="1920"
     inkscape:window-height="1017"
     inkscape:window-x="-8"
     inkscape:window-y="-8"
     inkscape:window-maximized="1"
     inkscape:current-layer="layer1" /><defs
     id="defs1" /><g
     inkscape:label="Шар 1"
     inkscape:groupmode="layer"
     id="layer1"><path
       d="m 5.4016127,0.40138202 c -0.19045,0.001 -0.39068,0.005 -0.60151,0.01 -3.37335,0.016 -4.50853991,-0.0476 -4.39662991,3.75739988 0.11191,3.80499 -0.23991,4.60437 4.04470991,4.60437 4.28461,0 4.42867,-0.17599 4.42867,-4.15686 0,-3.73203988 -0.61842,-4.23263988 -3.47524,-4.21472988 z m 0.0517,0.56793 c 0.0966,2e-4 0.2062,0.0187 0.32401,0.0703 0.37989,0.16641 0.62218,0.4227099 0.62218,0.4227099 l -1.68155,2.36782 c -0.14748,-0.0982 -0.30169,-0.18594 -0.46147,-0.26252 l 0.78755,-2.4778899 c 0,0 0.12278,-0.0911 0.31729,-0.11471998 0.0292,-0.004 0.0598,-0.006 0.092,-0.006 z m 1.36891,0.84076988 c 0,0 0.35194,0.0803 0.62373,0.44804 0.27178,0.36771 0.31988,0.79892 0.31988,0.79892 l -2.17248,1.58646 c -0.14962,-0.19119 -0.31731,-0.36754 -0.50074,-0.52658 z m -3.76825,1.8154 c 0.34062,0.071 0.66981,0.18877 0.97823,0.34985 -0.16355,0.18609 -0.23126,0.49514 -0.23926,0.9927 -0.016,1.05515 0.31939,1.29497 1.10278,1.26297 0.4826,0 0.77344,-0.0528 0.94826,-0.17311 0.13741,0.38688 0.21089,0.79356 0.21756,1.20406 -1.13753,0.0167 -4.10593,0.0311 -4.2354,-0.27957 -0.13752,-0.33006 0.91628,-2.6757 1.22783,-3.3569 z m 4.89944,0.0987 c 0,0 0.24338,0.26895 0.21808,0.72554 -0.0196,0.35444 -0.14573,0.75344 -0.14573,0.75344 l -1.92805,0.29404 c -0.0883,-0.20773 -0.19499,-0.40714 -0.31884,-0.59583 z m -3.67988,0.38861 c 0.30023,0.18569 0.57298,0.41251 0.81029,0.67386 0.24911,0.27527 0.45631,0.58573 0.61495,0.92139 -0.29042,0.0644 -0.90487,0.18048 -1.07435,0.0594 -0.22383,-0.15988 -0.4796,-0.47972 -0.5116,-0.81546 -0.0216,-0.22736 0.0872,-0.61199 0.16071,-0.83922 z"
       style="fill:#ff0000;stroke-width:0.264583"
       id="path16" /><path
       d="m 4.2735127,4.1127919 c -0.0735,0.22723 -0.18235,0.61186 -0.16071,0.83922 0.032,0.33574 0.28777,0.65558 0.5116,0.81546 0.16948,0.12105 0.78393,0.005 1.07435,-0.0594 -0.15864,-0.33566 -0.36584,-0.64612 -0.61495,-0.92139 -0.23731,-0.26135 -0.51006,-0.48817 -0.81029,-0.67386 z"
       style="fill:#ffffff;stroke-width:0.264583"
       id="path15" /><path
       d="m 3.0539527,3.6254819 c -0.31155,0.68121 -1.36535,3.02684 -1.22783,3.3569 0.12947,0.3107 3.09787,0.29624 4.2354,0.27957 -0.007,-0.4105 -0.0802,-0.81718 -0.21756,-1.20406 -0.17482,0.12031 -0.46566,0.17311 -0.94826,0.17311 -0.78339,0.032 -1.11878,-0.20782 -1.10278,-1.26297 0.008,-0.49756 0.0757,-0.80661 0.23926,-0.9927 -0.30842,-0.16108 -0.63761,-0.2788 -0.97823,-0.34985 z"
       style="fill:#ffffff;stroke-width:0.264583"
       id="path14" /><path
       d="m 5.4532927,0.96931202 c -0.0322,-5e-5 -0.0628,0.002 -0.092,0.006 -0.19451,0.0236 -0.31729,0.11471998 -0.31729,0.11471998 l -0.78755,2.4778899 a 3.7810242,3.7810242 0 0 1 0.46147,0.26252 l 1.68155,-2.36782 c 0,0 -0.24229,-0.2562999 -0.62218,-0.4227099 -0.11781,-0.0516 -0.22736,-0.0701 -0.32401,-0.0703 z m 1.36891,0.84076988 -1.72961,2.30684 a 3.7810242,3.7810242 0 0 1 0.50074,0.52658 l 2.17248,-1.58646 c 0,0 -0.0481,-0.43121 -0.31988,-0.79892 -0.27179,-0.36775 -0.62373,-0.44804 -0.62373,-0.44804 z m 1.13119,1.9141 -2.17454,1.17719 a 3.7810242,3.7810242 0 0 1 0.31884,0.59583 l 1.92805,-0.29404 c 0,0 0.12611,-0.399 0.14573,-0.75344 0.0253,-0.45659 -0.21808,-0.72554 -0.21808,-0.72554 z"
       style="fill:#ffffff;stroke-width:0.264583"
       id="path13" /></g></svg>
